<?xml version="1.0" encoding="utf-8"?>
<!-- Generator: Adobe Illustrator 15.0.2, SVG Export Plug-In . SVG Version: 6.00 Build 0)  -->
<!DOCTYPE svg PUBLIC "-//W3C//DTD SVG 1.1//EN" "http://www.w3.org/Graphics/SVG/1.1/DTD/svg11.dtd">
<svg version="1.1" id="Layer_1" xmlns="http://www.w3.org/2000/svg" xmlns:xlink="http://www.w3.org/1999/xlink" x="0px" y="0px"
	 width="138px" height="48px" viewBox="0 0 138 48" enable-background="new 0 0 138 48" xml:space="preserve">
<path fill="#8A8A8A" d="M128.467,31.458c-0.871,5.609-5.424,7.664-16.454,7.664H99.164c-14.9,0-20.188-3.471-20.202-11.571v-9.614
	c0-7.735,3.922-11.088,17.76-11.088h12.593c14.333,0,18.837,3.5,18.996,10.786v0.747H86.706v5.848H137V19.48
	C137,4.264,125.632,1,109.854,1H95.712c-5.951,0-11.974-0.092-16.685,2.081c-3.129,1.446-8.168,5.006-8.325,13.934
	c0,0.583-0.175,0.891-0.438,1.164c-0.337,0.356-0.9,0.412-1.854,0.412c-1.071,0-1.556-0.137-1.846-0.47
	c-0.305-0.352-0.305-0.859-0.305-1.508V1.676h-8.971V30.05c0,3.779-2.486,6.075-5.148,7.064c-2.664,0.992-4.675,1.935-19.011,1.935
	c-13.557,0-15.841-0.998-18.384-2.017c-2.553-1.013-4.918-3.26-4.918-6.982V1.676H1v28.333c0,4.567,2.335,9.267,6.639,11.67
	c5.598,3.138,9.455,3.281,25.508,3.281c16.242,0,21.738-0.634,26.773-3.457c2.877-1.619,5.648-4.954,6.339-9.349
	c0.151-0.922,0.068-1.334,0.48-1.803c0.337-0.374,0.951-0.345,1.819-0.345c0.747,0,1.212-0.029,1.665,0.233
	c0.539,0.31,0.734,1.272,0.978,2.338c0.83,3.586,2.484,5.841,4.531,7.646c4.837,4.27,11.821,4.735,18.951,4.735h17.401
	c17.771,0,23.906-4.168,24.719-13.502H128.467"/>
</svg>
