<?xml version="1.0" encoding="utf-8"?>
<!-- Generator: Adobe Illustrator 15.0.2, SVG Export Plug-In . SVG Version: 6.00 Build 0)  -->
<!DOCTYPE svg PUBLIC "-//W3C//DTD SVG 1.1//EN" "http://www.w3.org/Graphics/SVG/1.1/DTD/svg11.dtd">
<svg version="1.1" id="Layer_1" xmlns="http://www.w3.org/2000/svg" xmlns:xlink="http://www.w3.org/1999/xlink" x="0px" y="0px"
	 width="64px" height="22px" viewBox="0 0 64 22" enable-background="new 0 0 64 22" xml:space="preserve">
<path fill="#3A3A3A" d="M59.109,14.885c-0.396,2.558-2.472,3.494-7.501,3.494h-5.857c-6.793,0-9.203-1.582-9.21-5.274V8.722
	c0-3.526,1.788-5.055,8.097-5.055h5.741c6.534,0,8.587,1.595,8.66,4.917v0.34H40.072v2.666H63V9.425C63,2.488,57.817,1,50.624,1
	h-6.446c-2.713,0-5.459-0.042-7.606,0.949c-1.427,0.659-3.724,2.282-3.795,6.353c0,0.266-0.08,0.406-0.2,0.531
	c-0.153,0.163-0.41,0.188-0.845,0.188c-0.488,0-0.709-0.062-0.841-0.214c-0.139-0.161-0.139-0.392-0.139-0.688v-6.81h-4.09v12.935
	c0,1.723-1.133,2.77-2.347,3.221c-1.214,0.452-2.131,0.882-8.667,0.882c-6.18,0-7.222-0.455-8.381-0.919
	c-1.164-0.462-2.242-1.486-2.242-3.184V1.308H1v12.917c0,2.082,1.064,4.225,3.027,5.32c2.552,1.431,4.31,1.496,11.628,1.496
	c7.405,0,9.91-0.289,12.206-1.576c1.312-0.738,2.575-2.259,2.891-4.262c0.068-0.421,0.03-0.608,0.218-0.822
	c0.154-0.171,0.434-0.157,0.83-0.157c0.34,0,0.553-0.014,0.759,0.106c0.245,0.142,0.335,0.58,0.445,1.065
	c0.379,1.635,1.133,2.663,2.065,3.486c2.205,1.946,5.39,2.159,8.64,2.159h7.934c8.101,0,10.898-1.9,11.269-6.156H59.109"/>
</svg>
